<svg xmlns="http://www.w3.org/2000/svg" version="1.1" viewBox="-5.0 -10.0 110.0 135.0">
 <path d="m50 6.8086c5.8711 0 10.621 4.7617 10.621 10.621v43.09c4.5117 3.2812 7.4414 8.6016 7.4414 14.609 0 9.9688-8.0781 18.059-18.059 18.059-9.9805 0-18.059-8.0898-18.059-18.059 0-6.0117 2.9297-11.328 7.4414-14.609v-43.09c0-5.8594 4.75-10.621 10.621-10.621zm-3.4414 34.309v23.051l-2.9492 2.1484c-2.8281 2.0586-4.4883 5.3086-4.4883 8.8086 0 6.0117 4.8711 10.879 10.879 10.879 6.0117 0 10.879-4.8711 10.879-10.879 0-3.5-1.6602-6.75-4.4883-8.8086l-2.9492-2.1484v-23.051zm3.4414-29.52c-3.2188 0-5.8281 2.6094-5.8281 5.8281v45.531l-1.9688 1.4297c-3.4414 2.5117-5.4688 6.4688-5.4688 10.738 0 7.3281 5.9414 13.27 13.27 13.27s13.27-5.9414 13.27-13.27c0-4.2695-2.0312-8.2305-5.4688-10.738l-1.9688-1.4297v-45.531c0-3.2188-2.6094-5.8281-5.8281-5.8281z" fill-rule="evenodd"/>
<text x="0.0" y="117.5" font-size="5.0" font-weight="bold" font-family="Arbeit Regular, Helvetica, Arial-Unicode, Arial, Sans-serif" fill="#000000">Created by Nur Faizah</text><text x="0.0" y="122.5" font-size="5.0" font-weight="bold" font-family="Arbeit Regular, Helvetica, Arial-Unicode, Arial, Sans-serif" fill="#000000">from Noun Project</text></svg>